<svg width="32" height="32" viewBox="0 0 32 32" fill="none" xmlns="http://www.w3.org/2000/svg">
  <defs>
    <linearGradient id="sunGradient" x1="0%" y1="0%" x2="100%" y2="100%">
      <stop offset="0%" style="stop-color:#FFD700;stop-opacity:1" />
      <stop offset="100%" style="stop-color:#FF6B35;stop-opacity:1" />
    </linearGradient>
    <linearGradient id="palmGradient" x1="0%" y1="0%" x2="100%" y2="100%">
      <stop offset="0%" style="stop-color:#228B22;stop-opacity:1" />
      <stop offset="100%" style="stop-color:#006400;stop-opacity:1" />
    </linearGradient>
    <linearGradient id="waveGradient" x1="0%" y1="0%" x2="100%" y2="100%">
      <stop offset="0%" style="stop-color:#1E90FF;stop-opacity:1" />
      <stop offset="100%" style="stop-color:#0066CC;stop-opacity:1" />
    </linearGradient>
  </defs>
  
  <!-- Background -->
  <rect width="32" height="32" rx="6" fill="#F0F9FF"/>
  
  <!-- Sun -->
  <circle cx="8" cy="8" r="4" fill="url(#sunGradient)" />
  
  <!-- Palm Tree -->
  <ellipse cx="24" cy="20" rx="1.5" ry="4" fill="#8B4513" />
  <path d="M22 16c-1-1 0-4 3-3M26 16c1-1 0-4-3-3M24 15c0-2 1.5-3 3-2M24 15c0-2-1.5-3-3-2" fill="url(#palmGradient)" />
  
  <!-- Waves -->
  <path d="M4 24c2-1 4-1 6 0s4 1 6 0M4 27c2-1 4-1 6 0s4 1 6 0" stroke="url(#waveGradient)" stroke-width="1.5" fill="none" />
</svg>
